:version 1.10
:name ASF
:units
  mass 1
  length 1
  angle deg
:documentation
  ASF file generated by Kaydara
:root
  axis xyz
  order  tx ty tz rx ry rz
  position 0 0 0
  orientation 0 0 0
:bonedata
  begin
    id 1
    name LeftUpLegDummy
    direction 1 -2.30186e-007 -8.31532e-007
    length 2.93387
    axis 0 0 0 xyz
  end
  begin
    id 2
    name LeftUpLeg
    direction -1.82929e-007 -1 -1.48925e-009
    length 17.3336
    axis -3.48766 0.00143442 -0.000521554 xyz
    dof rx ry rz
  end
  begin
    id 3
    name LeftLeg
    direction -1.82929e-007 -1 -5.23717e-011
    length 14.9995
    axis 3.68178 -0.00654042 -0.000282425 xyz
    dof rx ry rz
  end
  begin
    id 4
    name LeftFoot
    direction 8.31532e-007 -4.54534e-011 1
    length 6.74421
    axis 1.87234e-006 4.66016e-005 -5.96866e-006 xyz
    dof rx ry rz
  end
  begin
    id 5
    name LeftToes
    direction 0.00818058 -0.00485161 0.999955
    length 3.85048
    axis 1.06247e-005 4.65869e-005 -5.96999e-006 xyz
    dof rx ry rz
  end
  begin
    id 6
    name SpineDummy
    direction -5.8607e-008 0.943407 -0.331637
    length 5.93572
    axis 0 0 0 xyz
  end
  begin
    id 7
    name Spine
    direction -1.04988e-007 0.999988 0.00495137
    length 10.1015
    axis -0.001389 0.000121417 6.61666e-006 xyz
    dof rx ry rz
  end
  begin
    id 8
    name Spine1
    direction 0 0 0
    length 0
    axis -0.001389 0.00012144 6.56766e-006 xyz
    dof rx ry rz
  end
  begin
    id 9
    name RightShoulderDummy
    direction -0.98348 0.17941 -0.0240696
    length 3.59882
    axis -0.001389 0.00012144 6.56766e-006 xyz
  end
  begin
    id 10
    name RightShoulder
    direction -0.978693 0.204882 0.0135597
    length 2.70001
    axis 0.215806 0.000203631 -0.00679732 xyz
    dof rx ry rz
  end
  begin
    id 11
    name RightArm
    direction -1 3.85509e-006 8.31394e-007
    length 10.2459
    axis -23.2009 -0.134239 -0.964098 xyz
    dof rx ry rz
  end
  begin
    id 12
    name RightForeArm
    direction -1 3.85569e-006 8.3129e-007
    length 8.16799
    axis -9.92322 0.0658061 0.17887 xyz
    dof rx ry rz
  end
  begin
    id 13
    name RightHand
    direction -0.992843 -0.0414604 0.112003
    length 5.28593
    axis -0.00960638 0.00330669 -0.185225 xyz
    dof rx ry rz
  end
  begin
    id 14
    name LeftShoulder1Dummy
    direction 0.983523 0.179172 -0.0240748
    length 3.59866
    axis -0.001389 0.00012144 6.56766e-006 xyz
  end
  begin
    id 15
    name LeftShoulder1
    direction 0.978627 0.205195 0.0135605
    length 2.70019
    axis -0.001389 0.00012144 6.57583e-006 xyz
    dof rx ry rz
  end
  begin
    id 16
    name LeftArm
    direction 1 3.51895e-006 -8.60188e-007
    length 10.2459
    axis -23.1894 0.134785 0.967513 xyz
    dof rx ry rz
  end
  begin
    id 17
    name LeftForeArm
    direction 1 3.51921e-006 -7.32029e-007
    length 8.16799
    axis -9.91835 -0.0656957 -0.177789 xyz
    dof rx ry rz
  end
  begin
    id 18
    name LeftHand
    direction 0.992938 -0.0411636 0.11126
    length 5.32135
    axis -0.00960237 -0.00340661 0.185177 xyz
    dof rx ry rz
  end
  begin
    id 19
    name HEadDummy
    direction 1.01974e-006 0.999861 -0.016675
    length 2.99946
    axis -0.001389 0.00012144 6.56766e-006 xyz
  end
  begin
    id 20
    name HEad
    direction -0.0222689 0.980941 0.193023
    length 5.12695
    axis -0.001389 0.00012144 6.56766e-006 xyz
    dof rx ry rz
  end
  begin
    id 21
    name RightUpLegDummy
    direction -1 2.30186e-007 8.31532e-007
    length 2.93387
    axis 0 0 0 xyz
  end
  begin
    id 22
    name RightUpLeg
    direction -1.82966e-007 -1 1.56832e-007
    length 17.3336
    axis -3.4909 -0.000906625 0.00028951 xyz
    dof rx ry rz
  end
  begin
    id 23
    name RightLeg
    direction -1.82786e-007 -1 -1.80317e-007
    length 14.9995
    axis 3.68513 0.0193739 -0.131021 xyz
    dof rx ry rz
  end
  begin
    id 24
    name RightFoot
    direction 8.31721e-007 -4.63324e-011 1
    length 6.74421
    axis 4.81691e-005 -0.120479 -0.188785 xyz
    dof rx ry rz
  end
  begin
    id 25
    name RightToes
    direction 0.00124746 -0.014064 0.9999
    length 3.85082
    axis 0.000481921 0.542163 -0.142575 xyz
    dof rx ry rz
  end
:hierarchy
  begin
    root LeftUpLegDummy SpineDummy RightUpLegDummy
    LeftUpLegDummy LeftUpLeg
    LeftUpLeg LeftLeg
    LeftLeg LeftFoot
    LeftFoot LeftToes
    SpineDummy Spine
    Spine Spine1
    Spine1 RightShoulderDummy LeftShoulder1Dummy HEadDummy
    RightShoulderDummy RightShoulder
    RightShoulder RightArm
    RightArm RightForeArm
    RightForeArm RightHand
    LeftShoulder1Dummy LeftShoulder1
    LeftShoulder1 LeftArm
    LeftArm LeftForeArm
    LeftForeArm LeftHand
    HEadDummy HEad
    RightUpLegDummy RightUpLeg
    RightUpLeg RightLeg
    RightLeg RightFoot
    RightFoot RightToes
  end

:SAMPLES-PER-SECOND 30
:FULLY-SPECIFIED
:DEGREES
132
root  31.8998 34.8347 43.114 0.764383 41.5134 -5.82843
LeftUpLeg  -14.5847 13.7926 -2.74418
LeftLeg  8.87221 9.31037 0.840954
LeftFoot  4.05275 -0.0234105 0.661641
LeftToes  2.38958 2.48695e-006 -1.03773e-007
Spine  4.00726 2.25685 -2.84226
Spine1  7.84111 4.52036 -5.10645
RightShoulder  0.00178319 6.36089 3.14628
RightArm  -31.3944 -14.0071 78.971
RightForeArm  24.3431 38.2106 7.9832
RightHand  0.326232 -4.89811 -7.23668
LeftShoulder1  0.022071 4.83698 -8.05399
LeftArm  -17.0765 -10.6852 -67.903
LeftForeArm  26.6462 -33.947 -6.81253
LeftHand  0.0677181 0.97866 7.49329
HEad  23.3049 25.7903 -6.66959
RightUpLeg  -15.6097 -19.581 -5.75597
RightLeg  48.9142 -2.36192 -2.42144
RightFoot  7.65153 0.0592419 -0.508292
RightToes  -36.8689 -0.193966 -0.296761
133
root  32.2866 34.8844 43.6197 0.0758473 45.0723 -6.64538
LeftUpLeg  -14.1422 13.5307 -2.35011
LeftLeg  9.94111 6.13474 0.670417
LeftFoot  2.82565 -0.0073509 0.298039
LeftToes  2.99498 2.48695e-006 -1.03773e-007
Spine  3.93495 2.37741 -2.79208
Spine1  7.69156 4.75217 -5.02505
RightShoulder  0.00261664 6.42705 2.94109
RightArm  -33.3634 -12.599 78.2435
RightForeArm  22.8664 37.8682 7.88455
RightHand  0.397777 -5.18805 -8.38229
LeftShoulder1  0.0221018 4.98247 -7.80138
LeftArm  -14.6684 -11.4593 -68.9255
LeftForeArm  27.1988 -37.4358 -7.75647
LeftHand  0.0386901 0.563347 7.39654
HEad  23.2846 27.3544 -6.29621
RightUpLeg  -14.5717 -17.3966 -5.66543
RightLeg  39.4596 -3.18398 -2.31296
RightFoot  7.04467 0.0559331 -0.531063
RightToes  -37.3317 -0.197526 -0.299558
134
root  32.6443 34.9236 44.0874 -0.459823 48.8701 -7.58943
LeftUpLeg  -13.8089 11.6937 -1.82791
LeftLeg  10.4918 4.20051 0.499954
LeftFoot  1.97124 -0.00236824 0.137648
LeftToes  3.15757 2.48695e-006 -1.03773e-007
Spine  3.78425 2.47819 -2.72595
Spine1  7.38777 4.94883 -4.92928
RightShoulder  0.00324191 6.45968 2.80014
RightArm  -34.7374 -11.9587 77.3531
RightForeArm  21.8929 37.8317 7.87403
RightHand  0.463277 -5.52852 -9.1919
LeftShoulder1  0.0216304 5.0792 -7.65846
LeftArm  -12.2876 -11.5265 -69.7875
LeftForeArm  27.8482 -40.3244 -8.60959
LeftHand  0.0146345 0.211703 7.29985
HEad  22.8936 29.4457 -5.89138
RightUpLeg  -13.4077 -15.049 -5.53215
RightLeg  30.0491 -6.20929 -3.07609
RightFoot  5.94181 0.0587877 -0.755065
RightToes  -35.1468 -0.180921 -0.286099
135
root  32.9868 34.9499 44.5262 -0.548461 52.5832 -7.98038
LeftUpLeg  -13.1611 9.11236 -1.63102
LeftLeg  10.1374 3.13042 0.35286
LeftFoot  1.67355 -0.00122828 0.0840886
LeftToes  2.84606 2.48695e-006 -1.03773e-007
Spine  3.69 2.62159 -2.78643
Spine1  7.19413 5.23537 -5.0643
RightShoulder  0.00378119 6.56983 2.84131
RightArm  -35.3197 -11.8616 76.2611
RightForeArm  21.2902 38.1415 7.96314
RightHand  0.486963 -5.63017 -9.49774
LeftShoulder1  0.020904 5.09313 -7.6988
LeftArm  -10.0748 -11.2442 -70.1933
LeftForeArm  28.2112 -42.0887 -9.16868
LeftHand  -0.00541177 -0.0875939 7.27733
HEad  22.146 31.9653 -5.62854
RightUpLeg  -12.2906 -11.6561 -6.15527
RightLeg  19.9357 -9.1765 -2.66078
RightFoot  7.75673 0.116073 -1.33435
RightToes  -33.9627 -0.172139 -0.278543
136
root  33.3049 34.9678 44.9258 -0.83613 55.9736 -8.54784
LeftUpLeg  -12.7193 7.3643 -1.37928
LeftLeg  10.0973 1.57036 0.175386
LeftFoot  1.24094 0.000606617 0.0263508
LeftToes  2.65934 2.48695e-006 -1.03773e-007
Spine  3.65732 2.84967 -2.80222
Spine1  7.11686 5.69477 -5.10533
RightShoulder  0.00427478 6.6686 2.99557
RightArm  -35.4925 -11.9673 75.1331
RightForeArm  21.4225 38.1791 7.97402
RightHand  0.476097 -5.48539 -9.53214
LeftShoulder1  0.0201698 5.19307 -7.78644
LeftArm  -8.16705 -10.5711 -70.435
LeftForeArm  28.5086 -42.6625 -9.35739
LeftHand  -0.0258653 -0.396404 7.22287
HEad  21.2024 34.6478 -5.41949
RightUpLeg  -11.8268 -9.01913 -6.67306
RightLeg  11.2847 -11.2362 -1.48536
RightFoot  9.33405 0.185345 -1.89241
RightToes  -34.7828 -0.178205 -0.283796
